<mxfile host="app.diagrams.net" modified="2024-05-15T21:32:35.982Z" agent="Mozilla/5.0 (Windows NT 10.0; Win64; x64) AppleWebKit/537.36 (KHTML, like Gecko) Chrome/124.0.0.0 Safari/537.36" etag="OGlV66cKYpAWGkjm8TtN" version="24.2.3" type="github" pages="3">
  <diagram id="C5RBs43oDa-KdzZeNtuy" name="AWS SQS">
    <mxGraphModel dx="2074" dy="1106" grid="1" gridSize="10" guides="1" tooltips="1" connect="1" arrows="1" fold="1" page="1" pageScale="1" pageWidth="827" pageHeight="1169" math="0" shadow="0">
      <root>
        <mxCell id="WIyWlLk6GJQsqaUBKTNV-0" />
        <mxCell id="WIyWlLk6GJQsqaUBKTNV-1" parent="WIyWlLk6GJQsqaUBKTNV-0" />
        <mxCell id="gMn0jEGUSGzAj_YLGTHS-15" value="" style="group;dashed=1;strokeColor=none;dashPattern=8 8;" vertex="1" connectable="0" parent="WIyWlLk6GJQsqaUBKTNV-1">
          <mxGeometry x="556" y="180" width="240" height="240" as="geometry" />
        </mxCell>
        <mxCell id="gMn0jEGUSGzAj_YLGTHS-6" value="" style="whiteSpace=wrap;html=1;aspect=fixed;" vertex="1" parent="gMn0jEGUSGzAj_YLGTHS-15">
          <mxGeometry width="240" height="240" as="geometry" />
        </mxCell>
        <mxCell id="gMn0jEGUSGzAj_YLGTHS-7" value="Pod 1 (PM2 process)" style="text;html=1;align=center;verticalAlign=middle;whiteSpace=wrap;rounded=0;" vertex="1" parent="gMn0jEGUSGzAj_YLGTHS-15">
          <mxGeometry x="10" y="10" width="140" height="30" as="geometry" />
        </mxCell>
        <mxCell id="gMn0jEGUSGzAj_YLGTHS-9" value="Instance 1" style="rounded=0;whiteSpace=wrap;html=1;" vertex="1" parent="gMn0jEGUSGzAj_YLGTHS-15">
          <mxGeometry x="60" y="50" width="120" height="60" as="geometry" />
        </mxCell>
        <mxCell id="gMn0jEGUSGzAj_YLGTHS-14" value="Instance 2" style="rounded=0;whiteSpace=wrap;html=1;" vertex="1" parent="gMn0jEGUSGzAj_YLGTHS-15">
          <mxGeometry x="60" y="140" width="120" height="60" as="geometry" />
        </mxCell>
        <mxCell id="gMn0jEGUSGzAj_YLGTHS-16" value="" style="group" vertex="1" connectable="0" parent="WIyWlLk6GJQsqaUBKTNV-1">
          <mxGeometry x="556" y="450" width="240" height="240" as="geometry" />
        </mxCell>
        <mxCell id="gMn0jEGUSGzAj_YLGTHS-17" value="" style="whiteSpace=wrap;html=1;aspect=fixed;" vertex="1" parent="gMn0jEGUSGzAj_YLGTHS-16">
          <mxGeometry width="240" height="240" as="geometry" />
        </mxCell>
        <mxCell id="gMn0jEGUSGzAj_YLGTHS-18" value="Pod 2 (PM2 process)" style="text;html=1;align=center;verticalAlign=middle;whiteSpace=wrap;rounded=0;" vertex="1" parent="gMn0jEGUSGzAj_YLGTHS-16">
          <mxGeometry x="10" y="10" width="140" height="30" as="geometry" />
        </mxCell>
        <mxCell id="gMn0jEGUSGzAj_YLGTHS-19" value="Instance 1" style="rounded=0;whiteSpace=wrap;html=1;" vertex="1" parent="gMn0jEGUSGzAj_YLGTHS-16">
          <mxGeometry x="60" y="50" width="120" height="60" as="geometry" />
        </mxCell>
        <mxCell id="gMn0jEGUSGzAj_YLGTHS-20" value="Instance 2" style="rounded=0;whiteSpace=wrap;html=1;" vertex="1" parent="gMn0jEGUSGzAj_YLGTHS-16">
          <mxGeometry x="60" y="150" width="120" height="60" as="geometry" />
        </mxCell>
        <mxCell id="gMn0jEGUSGzAj_YLGTHS-21" style="edgeStyle=orthogonalEdgeStyle;rounded=0;orthogonalLoop=1;jettySize=auto;html=1;entryX=0;entryY=0.5;entryDx=0;entryDy=0;" edge="1" parent="WIyWlLk6GJQsqaUBKTNV-1" source="gMn0jEGUSGzAj_YLGTHS-0" target="gMn0jEGUSGzAj_YLGTHS-2">
          <mxGeometry relative="1" as="geometry">
            <Array as="points">
              <mxPoint x="200" y="440" />
              <mxPoint x="200" y="260" />
            </Array>
          </mxGeometry>
        </mxCell>
        <mxCell id="gMn0jEGUSGzAj_YLGTHS-22" style="edgeStyle=orthogonalEdgeStyle;rounded=0;orthogonalLoop=1;jettySize=auto;html=1;entryX=0;entryY=0.5;entryDx=0;entryDy=0;" edge="1" parent="WIyWlLk6GJQsqaUBKTNV-1" source="gMn0jEGUSGzAj_YLGTHS-0" target="gMn0jEGUSGzAj_YLGTHS-3">
          <mxGeometry relative="1" as="geometry">
            <Array as="points">
              <mxPoint x="200" y="440" />
              <mxPoint x="200" y="350" />
            </Array>
          </mxGeometry>
        </mxCell>
        <mxCell id="gMn0jEGUSGzAj_YLGTHS-23" style="edgeStyle=orthogonalEdgeStyle;rounded=0;orthogonalLoop=1;jettySize=auto;html=1;entryX=0;entryY=0.5;entryDx=0;entryDy=0;" edge="1" parent="WIyWlLk6GJQsqaUBKTNV-1" source="gMn0jEGUSGzAj_YLGTHS-0" target="gMn0jEGUSGzAj_YLGTHS-4">
          <mxGeometry relative="1" as="geometry">
            <Array as="points">
              <mxPoint x="200" y="440" />
              <mxPoint x="200" y="530" />
            </Array>
          </mxGeometry>
        </mxCell>
        <mxCell id="gMn0jEGUSGzAj_YLGTHS-24" style="edgeStyle=orthogonalEdgeStyle;rounded=0;orthogonalLoop=1;jettySize=auto;html=1;entryX=0;entryY=0.5;entryDx=0;entryDy=0;" edge="1" parent="WIyWlLk6GJQsqaUBKTNV-1" source="gMn0jEGUSGzAj_YLGTHS-0" target="gMn0jEGUSGzAj_YLGTHS-5">
          <mxGeometry relative="1" as="geometry">
            <Array as="points">
              <mxPoint x="200" y="440" />
              <mxPoint x="200" y="630" />
            </Array>
          </mxGeometry>
        </mxCell>
        <mxCell id="gMn0jEGUSGzAj_YLGTHS-0" value="SNS" style="shape=process;whiteSpace=wrap;html=1;backgroundOutline=1;" vertex="1" parent="WIyWlLk6GJQsqaUBKTNV-1">
          <mxGeometry x="30" y="410" width="120" height="60" as="geometry" />
        </mxCell>
        <mxCell id="gMn0jEGUSGzAj_YLGTHS-25" style="edgeStyle=orthogonalEdgeStyle;rounded=0;orthogonalLoop=1;jettySize=auto;html=1;entryX=0;entryY=0.5;entryDx=0;entryDy=0;" edge="1" parent="WIyWlLk6GJQsqaUBKTNV-1" source="gMn0jEGUSGzAj_YLGTHS-2" target="gMn0jEGUSGzAj_YLGTHS-9">
          <mxGeometry relative="1" as="geometry" />
        </mxCell>
        <mxCell id="gMn0jEGUSGzAj_YLGTHS-2" value="SQS1" style="shape=process;whiteSpace=wrap;html=1;backgroundOutline=1;" vertex="1" parent="WIyWlLk6GJQsqaUBKTNV-1">
          <mxGeometry x="340" y="230" width="120" height="60" as="geometry" />
        </mxCell>
        <mxCell id="gMn0jEGUSGzAj_YLGTHS-26" style="edgeStyle=orthogonalEdgeStyle;rounded=0;orthogonalLoop=1;jettySize=auto;html=1;" edge="1" parent="WIyWlLk6GJQsqaUBKTNV-1" source="gMn0jEGUSGzAj_YLGTHS-3" target="gMn0jEGUSGzAj_YLGTHS-14">
          <mxGeometry relative="1" as="geometry" />
        </mxCell>
        <mxCell id="gMn0jEGUSGzAj_YLGTHS-3" value="SQS2" style="shape=process;whiteSpace=wrap;html=1;backgroundOutline=1;" vertex="1" parent="WIyWlLk6GJQsqaUBKTNV-1">
          <mxGeometry x="340" y="320" width="120" height="60" as="geometry" />
        </mxCell>
        <mxCell id="gMn0jEGUSGzAj_YLGTHS-27" style="edgeStyle=orthogonalEdgeStyle;rounded=0;orthogonalLoop=1;jettySize=auto;html=1;entryX=0;entryY=0.5;entryDx=0;entryDy=0;" edge="1" parent="WIyWlLk6GJQsqaUBKTNV-1" source="gMn0jEGUSGzAj_YLGTHS-4" target="gMn0jEGUSGzAj_YLGTHS-19">
          <mxGeometry relative="1" as="geometry" />
        </mxCell>
        <mxCell id="gMn0jEGUSGzAj_YLGTHS-4" value="SQS3" style="shape=process;whiteSpace=wrap;html=1;backgroundOutline=1;" vertex="1" parent="WIyWlLk6GJQsqaUBKTNV-1">
          <mxGeometry x="340" y="500" width="120" height="60" as="geometry" />
        </mxCell>
        <mxCell id="gMn0jEGUSGzAj_YLGTHS-28" style="edgeStyle=orthogonalEdgeStyle;rounded=0;orthogonalLoop=1;jettySize=auto;html=1;" edge="1" parent="WIyWlLk6GJQsqaUBKTNV-1" source="gMn0jEGUSGzAj_YLGTHS-5" target="gMn0jEGUSGzAj_YLGTHS-20">
          <mxGeometry relative="1" as="geometry" />
        </mxCell>
        <mxCell id="gMn0jEGUSGzAj_YLGTHS-5" value="SQS4" style="shape=process;whiteSpace=wrap;html=1;backgroundOutline=1;" vertex="1" parent="WIyWlLk6GJQsqaUBKTNV-1">
          <mxGeometry x="340" y="600" width="120" height="60" as="geometry" />
        </mxCell>
        <mxCell id="gMn0jEGUSGzAj_YLGTHS-36" style="edgeStyle=orthogonalEdgeStyle;rounded=0;orthogonalLoop=1;jettySize=auto;html=1;entryX=0;entryY=0.5;entryDx=0;entryDy=0;" edge="1" parent="WIyWlLk6GJQsqaUBKTNV-1" source="gMn0jEGUSGzAj_YLGTHS-30" target="gMn0jEGUSGzAj_YLGTHS-33">
          <mxGeometry relative="1" as="geometry" />
        </mxCell>
        <mxCell id="gMn0jEGUSGzAj_YLGTHS-37" style="edgeStyle=orthogonalEdgeStyle;rounded=0;orthogonalLoop=1;jettySize=auto;html=1;" edge="1" parent="WIyWlLk6GJQsqaUBKTNV-1" source="gMn0jEGUSGzAj_YLGTHS-30" target="gMn0jEGUSGzAj_YLGTHS-34">
          <mxGeometry relative="1" as="geometry" />
        </mxCell>
        <mxCell id="gMn0jEGUSGzAj_YLGTHS-38" style="edgeStyle=orthogonalEdgeStyle;rounded=0;orthogonalLoop=1;jettySize=auto;html=1;entryX=0;entryY=0.5;entryDx=0;entryDy=0;" edge="1" parent="WIyWlLk6GJQsqaUBKTNV-1" source="gMn0jEGUSGzAj_YLGTHS-30" target="gMn0jEGUSGzAj_YLGTHS-35">
          <mxGeometry relative="1" as="geometry" />
        </mxCell>
        <mxCell id="gMn0jEGUSGzAj_YLGTHS-30" value="Load Balancer" style="rounded=0;whiteSpace=wrap;html=1;" vertex="1" parent="WIyWlLk6GJQsqaUBKTNV-1">
          <mxGeometry x="926" y="400" width="120" height="60" as="geometry" />
        </mxCell>
        <mxCell id="gMn0jEGUSGzAj_YLGTHS-31" style="edgeStyle=orthogonalEdgeStyle;rounded=0;orthogonalLoop=1;jettySize=auto;html=1;" edge="1" parent="WIyWlLk6GJQsqaUBKTNV-1" source="gMn0jEGUSGzAj_YLGTHS-6" target="gMn0jEGUSGzAj_YLGTHS-30">
          <mxGeometry relative="1" as="geometry" />
        </mxCell>
        <mxCell id="gMn0jEGUSGzAj_YLGTHS-32" style="edgeStyle=orthogonalEdgeStyle;rounded=0;orthogonalLoop=1;jettySize=auto;html=1;" edge="1" parent="WIyWlLk6GJQsqaUBKTNV-1" source="gMn0jEGUSGzAj_YLGTHS-17" target="gMn0jEGUSGzAj_YLGTHS-30">
          <mxGeometry relative="1" as="geometry" />
        </mxCell>
        <mxCell id="gMn0jEGUSGzAj_YLGTHS-33" value="Client A" style="rounded=0;whiteSpace=wrap;html=1;" vertex="1" parent="WIyWlLk6GJQsqaUBKTNV-1">
          <mxGeometry x="1136" y="270" width="120" height="60" as="geometry" />
        </mxCell>
        <mxCell id="gMn0jEGUSGzAj_YLGTHS-34" value="Client B" style="rounded=0;whiteSpace=wrap;html=1;" vertex="1" parent="WIyWlLk6GJQsqaUBKTNV-1">
          <mxGeometry x="1136" y="400" width="120" height="60" as="geometry" />
        </mxCell>
        <mxCell id="gMn0jEGUSGzAj_YLGTHS-35" value="Client C" style="rounded=0;whiteSpace=wrap;html=1;" vertex="1" parent="WIyWlLk6GJQsqaUBKTNV-1">
          <mxGeometry x="1136" y="530" width="120" height="60" as="geometry" />
        </mxCell>
        <mxCell id="gMn0jEGUSGzAj_YLGTHS-41" style="edgeStyle=orthogonalEdgeStyle;rounded=0;orthogonalLoop=1;jettySize=auto;html=1;entryX=0.5;entryY=0;entryDx=0;entryDy=0;" edge="1" parent="WIyWlLk6GJQsqaUBKTNV-1" source="gMn0jEGUSGzAj_YLGTHS-40" target="gMn0jEGUSGzAj_YLGTHS-0">
          <mxGeometry relative="1" as="geometry" />
        </mxCell>
        <mxCell id="gMn0jEGUSGzAj_YLGTHS-42" value="Publish new event" style="edgeLabel;html=1;align=center;verticalAlign=middle;resizable=0;points=[];" vertex="1" connectable="0" parent="gMn0jEGUSGzAj_YLGTHS-41">
          <mxGeometry x="-0.3103" y="-1" relative="1" as="geometry">
            <mxPoint as="offset" />
          </mxGeometry>
        </mxCell>
        <mxCell id="gMn0jEGUSGzAj_YLGTHS-40" value="Signpost&amp;nbsp;" style="shape=process;whiteSpace=wrap;html=1;backgroundOutline=1;" vertex="1" parent="WIyWlLk6GJQsqaUBKTNV-1">
          <mxGeometry x="30" y="10" width="120" height="60" as="geometry" />
        </mxCell>
        <mxCell id="gMn0jEGUSGzAj_YLGTHS-43" value="WebSockets&lt;div&gt;(socket.io)&lt;/div&gt;" style="text;html=1;align=center;verticalAlign=middle;whiteSpace=wrap;rounded=0;" vertex="1" parent="WIyWlLk6GJQsqaUBKTNV-1">
          <mxGeometry x="926" y="330" width="110" height="30" as="geometry" />
        </mxCell>
        <mxCell id="gMn0jEGUSGzAj_YLGTHS-46" value="" style="shape=flexArrow;endArrow=classic;startArrow=classic;html=1;rounded=0;" edge="1" parent="WIyWlLk6GJQsqaUBKTNV-1">
          <mxGeometry width="100" height="100" relative="1" as="geometry">
            <mxPoint x="866" y="370" as="sourcePoint" />
            <mxPoint x="1086" y="370.5" as="targetPoint" />
          </mxGeometry>
        </mxCell>
        <mxCell id="gMn0jEGUSGzAj_YLGTHS-47" value="Long poll" style="text;html=1;align=center;verticalAlign=middle;whiteSpace=wrap;rounded=0;" vertex="1" parent="WIyWlLk6GJQsqaUBKTNV-1">
          <mxGeometry x="476" y="230" width="60" height="30" as="geometry" />
        </mxCell>
        <mxCell id="gMn0jEGUSGzAj_YLGTHS-48" value="subscription&amp;nbsp;" style="text;html=1;align=center;verticalAlign=middle;whiteSpace=wrap;rounded=0;" vertex="1" parent="WIyWlLk6GJQsqaUBKTNV-1">
          <mxGeometry x="230" y="230" width="76" height="30" as="geometry" />
        </mxCell>
        <mxCell id="gMn0jEGUSGzAj_YLGTHS-50" value="subscription&amp;nbsp;" style="text;html=1;align=center;verticalAlign=middle;whiteSpace=wrap;rounded=0;" vertex="1" parent="WIyWlLk6GJQsqaUBKTNV-1">
          <mxGeometry x="230" y="320" width="76" height="30" as="geometry" />
        </mxCell>
        <mxCell id="gMn0jEGUSGzAj_YLGTHS-51" value="subscription&amp;nbsp;" style="text;html=1;align=center;verticalAlign=middle;whiteSpace=wrap;rounded=0;" vertex="1" parent="WIyWlLk6GJQsqaUBKTNV-1">
          <mxGeometry x="230" y="500" width="76" height="30" as="geometry" />
        </mxCell>
        <mxCell id="gMn0jEGUSGzAj_YLGTHS-52" value="subscription&amp;nbsp;" style="text;html=1;align=center;verticalAlign=middle;whiteSpace=wrap;rounded=0;" vertex="1" parent="WIyWlLk6GJQsqaUBKTNV-1">
          <mxGeometry x="230" y="600" width="76" height="30" as="geometry" />
        </mxCell>
        <mxCell id="gMn0jEGUSGzAj_YLGTHS-53" value="Long poll" style="text;html=1;align=center;verticalAlign=middle;whiteSpace=wrap;rounded=0;" vertex="1" parent="WIyWlLk6GJQsqaUBKTNV-1">
          <mxGeometry x="476" y="320" width="60" height="30" as="geometry" />
        </mxCell>
        <mxCell id="gMn0jEGUSGzAj_YLGTHS-54" value="Long poll" style="text;html=1;align=center;verticalAlign=middle;whiteSpace=wrap;rounded=0;" vertex="1" parent="WIyWlLk6GJQsqaUBKTNV-1">
          <mxGeometry x="476" y="500" width="60" height="30" as="geometry" />
        </mxCell>
        <mxCell id="gMn0jEGUSGzAj_YLGTHS-55" value="Long poll" style="text;html=1;align=center;verticalAlign=middle;whiteSpace=wrap;rounded=0;" vertex="1" parent="WIyWlLk6GJQsqaUBKTNV-1">
          <mxGeometry x="476" y="600" width="60" height="30" as="geometry" />
        </mxCell>
      </root>
    </mxGraphModel>
  </diagram>
  <diagram id="YR4tYLoG4z2xWWUYt9q0" name="Redis">
    <mxGraphModel dx="2074" dy="1106" grid="1" gridSize="10" guides="1" tooltips="1" connect="1" arrows="1" fold="1" page="1" pageScale="1" pageWidth="827" pageHeight="1169" math="0" shadow="0">
      <root>
        <mxCell id="0" />
        <mxCell id="1" parent="0" />
        <mxCell id="Vx_xxo8AUoKKcrUj2hSZ-1" value="" style="group;dashed=1;strokeColor=none;dashPattern=8 8;" vertex="1" connectable="0" parent="1">
          <mxGeometry x="556" y="180" width="240" height="240" as="geometry" />
        </mxCell>
        <mxCell id="Vx_xxo8AUoKKcrUj2hSZ-2" value="" style="whiteSpace=wrap;html=1;aspect=fixed;" vertex="1" parent="Vx_xxo8AUoKKcrUj2hSZ-1">
          <mxGeometry width="240" height="240" as="geometry" />
        </mxCell>
        <mxCell id="Vx_xxo8AUoKKcrUj2hSZ-3" value="Pod 1 (PM2 process)" style="text;html=1;align=center;verticalAlign=middle;whiteSpace=wrap;rounded=0;" vertex="1" parent="Vx_xxo8AUoKKcrUj2hSZ-1">
          <mxGeometry x="10" y="10" width="140" height="30" as="geometry" />
        </mxCell>
        <mxCell id="Vx_xxo8AUoKKcrUj2hSZ-4" value="Instance 1" style="rounded=0;whiteSpace=wrap;html=1;" vertex="1" parent="Vx_xxo8AUoKKcrUj2hSZ-1">
          <mxGeometry x="60" y="50" width="120" height="60" as="geometry" />
        </mxCell>
        <mxCell id="Vx_xxo8AUoKKcrUj2hSZ-5" value="Instance 2" style="rounded=0;whiteSpace=wrap;html=1;" vertex="1" parent="Vx_xxo8AUoKKcrUj2hSZ-1">
          <mxGeometry x="60" y="140" width="120" height="60" as="geometry" />
        </mxCell>
        <mxCell id="Vx_xxo8AUoKKcrUj2hSZ-6" value="" style="group" vertex="1" connectable="0" parent="1">
          <mxGeometry x="556" y="450" width="240" height="240" as="geometry" />
        </mxCell>
        <mxCell id="Vx_xxo8AUoKKcrUj2hSZ-7" value="" style="whiteSpace=wrap;html=1;aspect=fixed;" vertex="1" parent="Vx_xxo8AUoKKcrUj2hSZ-6">
          <mxGeometry width="240" height="240" as="geometry" />
        </mxCell>
        <mxCell id="Vx_xxo8AUoKKcrUj2hSZ-8" value="Pod 2 (PM2 process)" style="text;html=1;align=center;verticalAlign=middle;whiteSpace=wrap;rounded=0;" vertex="1" parent="Vx_xxo8AUoKKcrUj2hSZ-6">
          <mxGeometry x="10" y="10" width="140" height="30" as="geometry" />
        </mxCell>
        <mxCell id="Vx_xxo8AUoKKcrUj2hSZ-9" value="Instance 1" style="rounded=0;whiteSpace=wrap;html=1;" vertex="1" parent="Vx_xxo8AUoKKcrUj2hSZ-6">
          <mxGeometry x="60" y="50" width="120" height="60" as="geometry" />
        </mxCell>
        <mxCell id="Vx_xxo8AUoKKcrUj2hSZ-10" value="Instance 2" style="rounded=0;whiteSpace=wrap;html=1;" vertex="1" parent="Vx_xxo8AUoKKcrUj2hSZ-6">
          <mxGeometry x="60" y="150" width="120" height="60" as="geometry" />
        </mxCell>
        <mxCell id="Vx_xxo8AUoKKcrUj2hSZ-11" style="edgeStyle=orthogonalEdgeStyle;rounded=0;orthogonalLoop=1;jettySize=auto;html=1;entryX=0;entryY=0.5;entryDx=0;entryDy=0;" edge="1" parent="1" source="Vx_xxo8AUoKKcrUj2hSZ-15" target="Vx_xxo8AUoKKcrUj2hSZ-4">
          <mxGeometry relative="1" as="geometry">
            <Array as="points">
              <mxPoint x="390" y="440" />
              <mxPoint x="390" y="260" />
            </Array>
            <mxPoint x="340" y="260" as="targetPoint" />
          </mxGeometry>
        </mxCell>
        <mxCell id="Vx_xxo8AUoKKcrUj2hSZ-12" style="edgeStyle=orthogonalEdgeStyle;rounded=0;orthogonalLoop=1;jettySize=auto;html=1;" edge="1" parent="1" source="Vx_xxo8AUoKKcrUj2hSZ-15" target="Vx_xxo8AUoKKcrUj2hSZ-5">
          <mxGeometry relative="1" as="geometry">
            <Array as="points">
              <mxPoint x="390" y="440" />
              <mxPoint x="390" y="350" />
            </Array>
            <mxPoint x="340" y="350" as="targetPoint" />
          </mxGeometry>
        </mxCell>
        <mxCell id="Vx_xxo8AUoKKcrUj2hSZ-13" style="edgeStyle=orthogonalEdgeStyle;rounded=0;orthogonalLoop=1;jettySize=auto;html=1;entryX=0;entryY=0.5;entryDx=0;entryDy=0;" edge="1" parent="1" source="Vx_xxo8AUoKKcrUj2hSZ-15" target="Vx_xxo8AUoKKcrUj2hSZ-9">
          <mxGeometry relative="1" as="geometry">
            <Array as="points">
              <mxPoint x="390" y="440" />
              <mxPoint x="390" y="530" />
            </Array>
            <mxPoint x="340" y="530" as="targetPoint" />
          </mxGeometry>
        </mxCell>
        <mxCell id="Vx_xxo8AUoKKcrUj2hSZ-14" style="edgeStyle=orthogonalEdgeStyle;rounded=0;orthogonalLoop=1;jettySize=auto;html=1;" edge="1" parent="1" source="Vx_xxo8AUoKKcrUj2hSZ-15" target="Vx_xxo8AUoKKcrUj2hSZ-10">
          <mxGeometry relative="1" as="geometry">
            <Array as="points">
              <mxPoint x="390" y="440" />
              <mxPoint x="390" y="630" />
            </Array>
            <mxPoint x="340" y="630" as="targetPoint" />
          </mxGeometry>
        </mxCell>
        <mxCell id="Vx_xxo8AUoKKcrUj2hSZ-15" value="Redis" style="shape=process;whiteSpace=wrap;html=1;backgroundOutline=1;" vertex="1" parent="1">
          <mxGeometry x="250" y="410" width="120" height="60" as="geometry" />
        </mxCell>
        <mxCell id="Vx_xxo8AUoKKcrUj2hSZ-24" style="edgeStyle=orthogonalEdgeStyle;rounded=0;orthogonalLoop=1;jettySize=auto;html=1;entryX=0;entryY=0.5;entryDx=0;entryDy=0;" edge="1" parent="1" source="Vx_xxo8AUoKKcrUj2hSZ-27" target="Vx_xxo8AUoKKcrUj2hSZ-30">
          <mxGeometry relative="1" as="geometry" />
        </mxCell>
        <mxCell id="Vx_xxo8AUoKKcrUj2hSZ-25" style="edgeStyle=orthogonalEdgeStyle;rounded=0;orthogonalLoop=1;jettySize=auto;html=1;" edge="1" parent="1" source="Vx_xxo8AUoKKcrUj2hSZ-27" target="Vx_xxo8AUoKKcrUj2hSZ-31">
          <mxGeometry relative="1" as="geometry" />
        </mxCell>
        <mxCell id="Vx_xxo8AUoKKcrUj2hSZ-26" style="edgeStyle=orthogonalEdgeStyle;rounded=0;orthogonalLoop=1;jettySize=auto;html=1;entryX=0;entryY=0.5;entryDx=0;entryDy=0;" edge="1" parent="1" source="Vx_xxo8AUoKKcrUj2hSZ-27" target="Vx_xxo8AUoKKcrUj2hSZ-32">
          <mxGeometry relative="1" as="geometry" />
        </mxCell>
        <mxCell id="Vx_xxo8AUoKKcrUj2hSZ-27" value="Load Balancer" style="rounded=0;whiteSpace=wrap;html=1;" vertex="1" parent="1">
          <mxGeometry x="926" y="400" width="120" height="60" as="geometry" />
        </mxCell>
        <mxCell id="Vx_xxo8AUoKKcrUj2hSZ-28" style="edgeStyle=orthogonalEdgeStyle;rounded=0;orthogonalLoop=1;jettySize=auto;html=1;" edge="1" parent="1" source="Vx_xxo8AUoKKcrUj2hSZ-2" target="Vx_xxo8AUoKKcrUj2hSZ-27">
          <mxGeometry relative="1" as="geometry" />
        </mxCell>
        <mxCell id="Vx_xxo8AUoKKcrUj2hSZ-29" style="edgeStyle=orthogonalEdgeStyle;rounded=0;orthogonalLoop=1;jettySize=auto;html=1;" edge="1" parent="1" source="Vx_xxo8AUoKKcrUj2hSZ-7" target="Vx_xxo8AUoKKcrUj2hSZ-27">
          <mxGeometry relative="1" as="geometry" />
        </mxCell>
        <mxCell id="Vx_xxo8AUoKKcrUj2hSZ-30" value="Client A" style="rounded=0;whiteSpace=wrap;html=1;" vertex="1" parent="1">
          <mxGeometry x="1136" y="270" width="120" height="60" as="geometry" />
        </mxCell>
        <mxCell id="Vx_xxo8AUoKKcrUj2hSZ-31" value="Client B" style="rounded=0;whiteSpace=wrap;html=1;" vertex="1" parent="1">
          <mxGeometry x="1136" y="400" width="120" height="60" as="geometry" />
        </mxCell>
        <mxCell id="Vx_xxo8AUoKKcrUj2hSZ-32" value="Client C" style="rounded=0;whiteSpace=wrap;html=1;" vertex="1" parent="1">
          <mxGeometry x="1136" y="530" width="120" height="60" as="geometry" />
        </mxCell>
        <mxCell id="Vx_xxo8AUoKKcrUj2hSZ-33" style="edgeStyle=orthogonalEdgeStyle;rounded=0;orthogonalLoop=1;jettySize=auto;html=1;entryX=0.5;entryY=0;entryDx=0;entryDy=0;" edge="1" parent="1" source="Vx_xxo8AUoKKcrUj2hSZ-35" target="Vx_xxo8AUoKKcrUj2hSZ-15">
          <mxGeometry relative="1" as="geometry" />
        </mxCell>
        <mxCell id="Vx_xxo8AUoKKcrUj2hSZ-34" value="Publish new event" style="edgeLabel;html=1;align=center;verticalAlign=middle;resizable=0;points=[];" vertex="1" connectable="0" parent="Vx_xxo8AUoKKcrUj2hSZ-33">
          <mxGeometry x="-0.3103" y="-1" relative="1" as="geometry">
            <mxPoint as="offset" />
          </mxGeometry>
        </mxCell>
        <mxCell id="Vx_xxo8AUoKKcrUj2hSZ-35" value="Signpost&amp;nbsp;" style="shape=process;whiteSpace=wrap;html=1;backgroundOutline=1;" vertex="1" parent="1">
          <mxGeometry x="250" y="10" width="120" height="60" as="geometry" />
        </mxCell>
        <mxCell id="Vx_xxo8AUoKKcrUj2hSZ-36" value="WebSockets&lt;div&gt;(socket.io)&lt;/div&gt;" style="text;html=1;align=center;verticalAlign=middle;whiteSpace=wrap;rounded=0;" vertex="1" parent="1">
          <mxGeometry x="926" y="330" width="110" height="30" as="geometry" />
        </mxCell>
        <mxCell id="Vx_xxo8AUoKKcrUj2hSZ-37" value="" style="shape=flexArrow;endArrow=classic;startArrow=classic;html=1;rounded=0;" edge="1" parent="1">
          <mxGeometry width="100" height="100" relative="1" as="geometry">
            <mxPoint x="866" y="370" as="sourcePoint" />
            <mxPoint x="1086" y="370.5" as="targetPoint" />
          </mxGeometry>
        </mxCell>
        <mxCell id="Vx_xxo8AUoKKcrUj2hSZ-39" value="subscription&amp;nbsp;" style="text;html=1;align=center;verticalAlign=middle;whiteSpace=wrap;rounded=0;" vertex="1" parent="1">
          <mxGeometry x="450" y="230" width="76" height="30" as="geometry" />
        </mxCell>
        <mxCell id="Vx_xxo8AUoKKcrUj2hSZ-40" value="subscription&amp;nbsp;" style="text;html=1;align=center;verticalAlign=middle;whiteSpace=wrap;rounded=0;" vertex="1" parent="1">
          <mxGeometry x="450" y="320" width="76" height="30" as="geometry" />
        </mxCell>
        <mxCell id="Vx_xxo8AUoKKcrUj2hSZ-41" value="subscription&amp;nbsp;" style="text;html=1;align=center;verticalAlign=middle;whiteSpace=wrap;rounded=0;" vertex="1" parent="1">
          <mxGeometry x="450" y="500" width="76" height="30" as="geometry" />
        </mxCell>
        <mxCell id="Vx_xxo8AUoKKcrUj2hSZ-42" value="subscription&amp;nbsp;" style="text;html=1;align=center;verticalAlign=middle;whiteSpace=wrap;rounded=0;" vertex="1" parent="1">
          <mxGeometry x="450" y="600" width="76" height="30" as="geometry" />
        </mxCell>
      </root>
    </mxGraphModel>
  </diagram>
  <diagram id="-XSJWaYHoBaL8rWp3MU7" name="Page-3">
    <mxGraphModel dx="2074" dy="1106" grid="1" gridSize="10" guides="1" tooltips="1" connect="1" arrows="1" fold="1" page="1" pageScale="1" pageWidth="827" pageHeight="1169" math="0" shadow="0">
      <root>
        <mxCell id="0" />
        <mxCell id="1" parent="0" />
      </root>
    </mxGraphModel>
  </diagram>
</mxfile>
